G04 #@! TF.FileFunction,Soldermask,Bot*
%FSLAX46Y46*%
G04 Gerber Fmt 4.6, Leading zero omitted, Abs format (unit mm)*
G04 Created by KiCad (PCBNEW (2015-10-02 BZR 6238, Git 845638f)-product) date 05/10/2015 16:09:44*
%MOMM*%
G01*
G04 APERTURE LIST*
%ADD10C,0.100000*%
%ADD11C,2.000000*%
%ADD12C,0.899160*%
%ADD13R,1.250000X1.000000*%
%ADD14R,1.727200X1.727200*%
%ADD15O,1.727200X1.727200*%
%ADD16R,2.032000X1.727200*%
%ADD17O,2.032000X1.727200*%
%ADD18R,1.500000X0.600000*%
%ADD19R,1.000000X1.250000*%
G04 APERTURE END LIST*
D10*
D11*
X81153000Y-73533000D03*
D12*
X91099640Y-75780900D03*
X86700360Y-75780900D03*
D13*
X86614000Y-89138000D03*
X86614000Y-87138000D03*
D14*
X95250000Y-81788000D03*
D15*
X97790000Y-81788000D03*
X95250000Y-84328000D03*
X97790000Y-84328000D03*
D16*
X101600000Y-79375000D03*
D17*
X101600000Y-81915000D03*
X101600000Y-84455000D03*
X101600000Y-86995000D03*
X101600000Y-89535000D03*
X101600000Y-92075000D03*
X101600000Y-94615000D03*
D16*
X81280000Y-79375000D03*
D17*
X81280000Y-81915000D03*
X81280000Y-84455000D03*
X81280000Y-86995000D03*
X81280000Y-89535000D03*
X81280000Y-92075000D03*
X81280000Y-94615000D03*
D18*
X94140000Y-86868000D03*
X94140000Y-88138000D03*
X94140000Y-89408000D03*
X94140000Y-90678000D03*
X94140000Y-91948000D03*
X94140000Y-93218000D03*
X94140000Y-94488000D03*
X88740000Y-94488000D03*
X88740000Y-93218000D03*
X88740000Y-91948000D03*
X88740000Y-90678000D03*
X88740000Y-89408000D03*
X88740000Y-88138000D03*
X88740000Y-86868000D03*
D16*
X84328000Y-81788000D03*
D17*
X84328000Y-84328000D03*
X84328000Y-86868000D03*
X84328000Y-89408000D03*
X84328000Y-91948000D03*
X84328000Y-94488000D03*
D19*
X93329000Y-83185000D03*
X91329000Y-83185000D03*
M02*
