G04 #@! TF.FileFunction,Copper,L2,Bot,Signal*
%FSLAX46Y46*%
G04 Gerber Fmt 4.6, Leading zero omitted, Abs format (unit mm)*
G04 Created by KiCad (PCBNEW (2015-10-02 BZR 6238, Git 845638f)-product) date 05/10/2015 16:09:44*
%MOMM*%
G01*
G04 APERTURE LIST*
%ADD10C,0.100000*%
%ADD11C,0.381000*%
%ADD12R,1.250000X1.000000*%
%ADD13R,1.727200X1.727200*%
%ADD14O,1.727200X1.727200*%
%ADD15R,2.032000X1.727200*%
%ADD16O,2.032000X1.727200*%
%ADD17R,1.500000X0.600000*%
%ADD18R,1.000000X1.250000*%
%ADD19C,0.812800*%
%ADD20C,0.304800*%
%ADD21C,0.250000*%
%ADD22C,0.254000*%
G04 APERTURE END LIST*
D10*
D11*
X103187000Y-72057000D02*
X103187000Y-77557000D01*
X99187000Y-75656440D02*
X99786440Y-77256640D01*
X99087940Y-75758040D02*
X98686620Y-77256640D01*
X99585780Y-75356720D02*
X98788220Y-75356720D01*
X98587560Y-75057000D02*
X99585780Y-75057000D01*
X99585780Y-74757280D02*
X98788220Y-74757280D01*
X103187500Y-77256640D02*
X101185980Y-77256640D01*
X101488240Y-76956920D02*
X103085900Y-76956920D01*
X103187500Y-76657200D02*
X101686360Y-76657200D01*
X101587300Y-76357480D02*
X103187500Y-76357480D01*
X103085900Y-76057760D02*
X101686360Y-76057760D01*
X101986080Y-75758040D02*
X103085900Y-75758040D01*
X103187500Y-75455780D02*
X102186740Y-75455780D01*
X102186740Y-75156060D02*
X103187500Y-75156060D01*
X103085900Y-74856340D02*
X102186740Y-74856340D01*
X102087680Y-74556620D02*
X103085900Y-74556620D01*
X103187500Y-74256900D02*
X101686360Y-74256900D01*
X101587300Y-73957180D02*
X103085900Y-73957180D01*
X103187500Y-73858120D02*
X101787960Y-73858120D01*
X101686360Y-73555860D02*
X103085900Y-73555860D01*
X103085900Y-73256140D02*
X101686360Y-73256140D01*
X101185980Y-72956420D02*
X102986840Y-72956420D01*
X103085900Y-72656700D02*
X100086160Y-72656700D01*
X99888040Y-72356980D02*
X103085900Y-72356980D01*
X98386900Y-72356980D02*
X95288100Y-72356980D01*
X95186500Y-72557640D02*
X98287840Y-72557640D01*
X97188020Y-72857360D02*
X95288100Y-72857360D01*
X95186500Y-73058020D02*
X96885760Y-73058020D01*
X96687640Y-73357740D02*
X95288100Y-73357740D01*
X95288100Y-73657460D02*
X96586040Y-73657460D01*
X96885760Y-73957180D02*
X95186500Y-73957180D01*
X95186500Y-74256900D02*
X96786700Y-74256900D01*
X96286320Y-74556620D02*
X95186500Y-74556620D01*
X95186500Y-74856340D02*
X96187260Y-74856340D01*
X96286320Y-75156060D02*
X95186500Y-75156060D01*
X95186500Y-75455780D02*
X96286320Y-75455780D01*
X96387920Y-75758040D02*
X95288100Y-75758040D01*
X95186500Y-76057760D02*
X96885760Y-76057760D01*
X96786700Y-76357480D02*
X95288100Y-76357480D01*
X96786700Y-76657200D02*
X95387160Y-76657200D01*
X95288100Y-76956920D02*
X96786700Y-76956920D01*
X97086420Y-77256640D02*
X95387160Y-77256640D01*
X99187000Y-76657200D02*
X98986340Y-77358240D01*
X99187000Y-76558140D02*
X99387660Y-77358240D01*
X103187500Y-77556360D02*
X95186500Y-77556360D01*
X99166680Y-75737720D02*
X99197160Y-76027280D01*
X99197160Y-76027280D02*
X98628200Y-77396340D01*
X98628200Y-77396340D02*
X98186240Y-77246480D01*
X98186240Y-77246480D02*
X98148140Y-77198220D01*
X98148140Y-77198220D02*
X97756980Y-77467460D01*
X97767140Y-77426820D02*
X97566480Y-77396340D01*
X97556320Y-77436980D02*
X96878140Y-76796900D01*
X96878140Y-76796900D02*
X96786700Y-76565760D01*
X96786700Y-76565760D02*
X97055940Y-76088240D01*
X97055940Y-76088240D02*
X97028000Y-75935840D01*
X97028000Y-75935840D02*
X96347280Y-75747880D01*
X96347280Y-75747880D02*
X96286320Y-74566780D01*
X96286320Y-74566780D02*
X96956880Y-74317860D01*
X96956880Y-74317860D02*
X97028000Y-74117200D01*
X97028000Y-74117200D02*
X96756220Y-73586340D01*
X96756220Y-73586340D02*
X96878140Y-73276460D01*
X96878140Y-73276460D02*
X97518220Y-72666860D01*
X97518220Y-72666860D02*
X97726500Y-72656700D01*
X97726500Y-72656700D02*
X98148140Y-72915780D01*
X98148140Y-72915780D02*
X98325940Y-72837040D01*
X98325940Y-72837040D02*
X98546920Y-72278240D01*
X98546920Y-72278240D02*
X98567240Y-72207120D01*
X98567240Y-72207120D02*
X99738180Y-72186800D01*
X99728020Y-72146160D02*
X99976940Y-72816720D01*
X99976940Y-72816720D02*
X100096320Y-72887840D01*
X100096320Y-72887840D02*
X100797360Y-72588120D01*
X100797360Y-72588120D02*
X101648260Y-73487280D01*
X101648260Y-73487280D02*
X101376480Y-74117200D01*
X101376480Y-74117200D02*
X101417120Y-74246740D01*
X101417120Y-74246740D02*
X101937820Y-74328020D01*
X101937820Y-74328020D02*
X102087680Y-74386440D01*
X102087680Y-74386440D02*
X102057200Y-75646280D01*
X102057200Y-75646280D02*
X101417120Y-75877420D01*
X101417120Y-75877420D02*
X101386640Y-75976480D01*
X101386640Y-75976480D02*
X101686360Y-76586080D01*
X101686360Y-76586080D02*
X100865940Y-77426820D01*
X100865940Y-77426820D02*
X100756720Y-77518260D01*
X100756720Y-77518260D02*
X100167440Y-77226160D01*
X100167440Y-77226160D02*
X99905820Y-77365860D01*
X99905820Y-77365860D02*
X99677220Y-77365860D01*
X99677220Y-77365860D02*
X99136200Y-75857100D01*
X99136200Y-75857100D02*
X99377500Y-75547220D01*
X99377500Y-75547220D02*
X99456240Y-75557380D01*
X99456240Y-75557380D02*
X99667060Y-75417680D01*
X99667060Y-75417680D02*
X99806760Y-75217020D01*
X99806760Y-75217020D02*
X99766120Y-74777600D01*
X99766120Y-74777600D02*
X99486720Y-74488040D01*
X99486720Y-74488040D02*
X99126040Y-74416920D01*
X99126040Y-74416920D02*
X98788220Y-74536300D01*
X98788220Y-74536300D02*
X98557080Y-74836020D01*
X98557080Y-74836020D02*
X98567240Y-75237340D01*
X98567240Y-75237340D02*
X98676460Y-75427840D01*
X98676460Y-75427840D02*
X99187000Y-75737720D01*
X103187500Y-72057260D02*
X95186500Y-72057260D01*
X95186500Y-72057260D02*
X95186500Y-77557000D01*
D12*
X86614000Y-89138000D03*
X86614000Y-87138000D03*
D13*
X95250000Y-81788000D03*
D14*
X97790000Y-81788000D03*
X95250000Y-84328000D03*
X97790000Y-84328000D03*
D15*
X101600000Y-79375000D03*
D16*
X101600000Y-81915000D03*
X101600000Y-84455000D03*
X101600000Y-86995000D03*
X101600000Y-89535000D03*
X101600000Y-92075000D03*
X101600000Y-94615000D03*
D15*
X81280000Y-79375000D03*
D16*
X81280000Y-81915000D03*
X81280000Y-84455000D03*
X81280000Y-86995000D03*
X81280000Y-89535000D03*
X81280000Y-92075000D03*
X81280000Y-94615000D03*
D17*
X94140000Y-86868000D03*
X94140000Y-88138000D03*
X94140000Y-89408000D03*
X94140000Y-90678000D03*
X94140000Y-91948000D03*
X94140000Y-93218000D03*
X94140000Y-94488000D03*
X88740000Y-94488000D03*
X88740000Y-93218000D03*
X88740000Y-91948000D03*
X88740000Y-90678000D03*
X88740000Y-89408000D03*
X88740000Y-88138000D03*
X88740000Y-86868000D03*
D15*
X84328000Y-81788000D03*
D16*
X84328000Y-84328000D03*
X84328000Y-86868000D03*
X84328000Y-89408000D03*
X84328000Y-91948000D03*
X84328000Y-94488000D03*
D18*
X93329000Y-83185000D03*
X91329000Y-83185000D03*
D19*
X92329000Y-89027000D03*
X91186000Y-92837000D03*
X89725500Y-83058000D03*
X88900000Y-83883500D03*
X93472000Y-84836000D03*
X92583000Y-90678000D03*
X96710500Y-79883000D03*
D20*
X92329000Y-89027000D02*
X91186000Y-90170000D01*
X91186000Y-90170000D02*
X91186000Y-92837000D01*
D21*
X86614000Y-87138000D02*
X86884000Y-86868000D01*
D20*
X86884000Y-86868000D02*
X88740000Y-86868000D01*
D11*
X88740000Y-86868000D02*
X84328000Y-86868000D01*
D21*
X80772000Y-86868000D02*
X84328000Y-86868000D01*
D20*
X86614000Y-89138000D02*
X86614000Y-90170000D01*
X87122000Y-90678000D02*
X88740000Y-90678000D01*
X86614000Y-90170000D02*
X87122000Y-90678000D01*
X89725500Y-84264500D02*
X89725500Y-83058000D01*
X89725500Y-83058000D02*
X89535000Y-83058000D01*
X80772000Y-81788000D02*
X82042000Y-83058000D01*
X82042000Y-83058000D02*
X85725000Y-83058000D01*
X89535000Y-83058000D02*
X85725000Y-83058000D01*
X91186000Y-88392000D02*
X91186000Y-85725000D01*
X91186000Y-85725000D02*
X90170000Y-84709000D01*
X90170000Y-89408000D02*
X88740000Y-89408000D01*
X90170000Y-89408000D02*
X91186000Y-88392000D01*
X89725500Y-84264500D02*
X90170000Y-84709000D01*
X88201500Y-85598000D02*
X89916000Y-85598000D01*
X89916000Y-85598000D02*
X88900000Y-84582000D01*
X88900000Y-84582000D02*
X88900000Y-83883500D01*
X89916000Y-88138000D02*
X90424000Y-87630000D01*
X90424000Y-87630000D02*
X90424000Y-86106000D01*
X90424000Y-86106000D02*
X89916000Y-85598000D01*
X88740000Y-88138000D02*
X89916000Y-88138000D01*
X82042000Y-85598000D02*
X87630000Y-85598000D01*
X88265000Y-85598000D02*
X88201500Y-85598000D01*
X88201500Y-85598000D02*
X87630000Y-85598000D01*
X82042000Y-85598000D02*
X80772000Y-84328000D01*
D11*
X93472000Y-84836000D02*
X93472000Y-83709000D01*
D20*
X93472000Y-83709000D02*
X93329000Y-83185000D01*
D11*
X94140000Y-86868000D02*
X93472000Y-86200000D01*
X93472000Y-86200000D02*
X93472000Y-84836000D01*
D20*
X93980000Y-86708000D02*
X94140000Y-86868000D01*
X87376000Y-91948000D02*
X86868000Y-91948000D01*
X88740000Y-91948000D02*
X87376000Y-91948000D01*
X86868000Y-91948000D02*
X84328000Y-89408000D01*
X84328000Y-89408000D02*
X84582000Y-89408000D01*
X80772000Y-89408000D02*
X84328000Y-89408000D01*
X88740000Y-93218000D02*
X86868000Y-93218000D01*
X85598000Y-91948000D02*
X84328000Y-91948000D01*
X86868000Y-93218000D02*
X85598000Y-91948000D01*
X80772000Y-91948000D02*
X84328000Y-91948000D01*
X94140000Y-89408000D02*
X97028000Y-89408000D01*
X97028000Y-89408000D02*
X102108000Y-84328000D01*
X92583000Y-90678000D02*
X94140000Y-90678000D01*
X94140000Y-90678000D02*
X98298000Y-90678000D01*
X98298000Y-90678000D02*
X102108000Y-86868000D01*
X94140000Y-91948000D02*
X99568000Y-91948000D01*
X99568000Y-91948000D02*
X102108000Y-89408000D01*
X94140000Y-93218000D02*
X100838000Y-93218000D01*
X100838000Y-93218000D02*
X102108000Y-91948000D01*
X94140000Y-94488000D02*
X102108000Y-94488000D01*
X88740000Y-94488000D02*
X86868000Y-94488000D01*
X82042000Y-93218000D02*
X80772000Y-94488000D01*
X85598000Y-93218000D02*
X82042000Y-93218000D01*
X86868000Y-94488000D02*
X85598000Y-93218000D01*
X99822000Y-81788000D02*
X100584000Y-81788000D01*
X100584000Y-81788000D02*
X102108000Y-81788000D01*
X99822000Y-82550000D02*
X99822000Y-81788000D01*
X99822000Y-81788000D02*
X99822000Y-81407000D01*
X99822000Y-81407000D02*
X98298000Y-79883000D01*
X98298000Y-79883000D02*
X96710500Y-79883000D01*
X94140000Y-88138000D02*
X96774000Y-88138000D01*
X96774000Y-88138000D02*
X99822000Y-85090000D01*
X99822000Y-85090000D02*
X99822000Y-82550000D01*
D22*
G36*
X94361000Y-72057260D02*
X94361000Y-77557000D01*
X94423837Y-77872905D01*
X94602783Y-78140717D01*
X94870595Y-78319663D01*
X95186500Y-78382500D01*
X95189718Y-78381860D01*
X99962793Y-78381860D01*
X99936560Y-78511400D01*
X99936560Y-80238600D01*
X99975824Y-80447272D01*
X98854776Y-79326224D01*
X98599325Y-79155537D01*
X98298000Y-79095600D01*
X97395952Y-79095600D01*
X97301176Y-79000659D01*
X96918556Y-78841781D01*
X96504262Y-78841420D01*
X96121365Y-78999629D01*
X95828159Y-79292324D01*
X95669281Y-79674944D01*
X95668920Y-80089238D01*
X95746485Y-80276960D01*
X94386400Y-80276960D01*
X94151083Y-80321238D01*
X93934959Y-80460310D01*
X93789969Y-80672510D01*
X93738960Y-80924400D01*
X93738960Y-81912560D01*
X92829000Y-81912560D01*
X92593683Y-81956838D01*
X92377559Y-82095910D01*
X92331031Y-82164006D01*
X92188698Y-82021673D01*
X91955309Y-81925000D01*
X91737750Y-81925000D01*
X91579000Y-82083750D01*
X91579000Y-82872500D01*
X91730000Y-82872500D01*
X91730000Y-83497500D01*
X91579000Y-83497500D01*
X91579000Y-84286250D01*
X91737750Y-84445000D01*
X91955309Y-84445000D01*
X92188698Y-84348327D01*
X92329936Y-84207090D01*
X92364910Y-84261441D01*
X92534773Y-84377503D01*
X92430781Y-84627944D01*
X92430420Y-85042238D01*
X92588629Y-85425135D01*
X92646500Y-85483107D01*
X92646500Y-86200000D01*
X92709337Y-86515906D01*
X92742929Y-86566179D01*
X92742560Y-86568000D01*
X92742560Y-87168000D01*
X92786838Y-87403317D01*
X92850678Y-87502528D01*
X92793569Y-87586110D01*
X92742560Y-87838000D01*
X92742560Y-88438000D01*
X92786838Y-88673317D01*
X92850678Y-88772528D01*
X92793569Y-88856110D01*
X92742560Y-89108000D01*
X92742560Y-89636739D01*
X92376762Y-89636420D01*
X91993865Y-89794629D01*
X91700659Y-90087324D01*
X91541781Y-90469944D01*
X91541420Y-90884238D01*
X91699629Y-91267135D01*
X91992324Y-91560341D01*
X92374944Y-91719219D01*
X92742560Y-91719539D01*
X92742560Y-92248000D01*
X92786838Y-92483317D01*
X92850678Y-92582528D01*
X92793569Y-92666110D01*
X92742560Y-92918000D01*
X92742560Y-93518000D01*
X92786838Y-93753317D01*
X92850678Y-93852528D01*
X92793569Y-93936110D01*
X92742560Y-94188000D01*
X92742560Y-94788000D01*
X92786838Y-95023317D01*
X92925910Y-95239441D01*
X93138110Y-95384431D01*
X93390000Y-95435440D01*
X94890000Y-95435440D01*
X95125317Y-95391162D01*
X95305216Y-95275400D01*
X100088801Y-95275400D01*
X100355585Y-95674670D01*
X100595536Y-95835000D01*
X85142396Y-95835000D01*
X85572415Y-95547670D01*
X85897271Y-95061489D01*
X85968723Y-94702275D01*
X86311224Y-95044776D01*
X86566675Y-95215463D01*
X86868000Y-95275400D01*
X87578538Y-95275400D01*
X87738110Y-95384431D01*
X87990000Y-95435440D01*
X89490000Y-95435440D01*
X89725317Y-95391162D01*
X89941441Y-95252090D01*
X90086431Y-95039890D01*
X90137440Y-94788000D01*
X90137440Y-94188000D01*
X90093162Y-93952683D01*
X90029322Y-93853472D01*
X90086431Y-93769890D01*
X90137440Y-93518000D01*
X90137440Y-92918000D01*
X90093162Y-92682683D01*
X90029322Y-92583472D01*
X90086431Y-92499890D01*
X90137440Y-92248000D01*
X90137440Y-91648000D01*
X90093162Y-91412683D01*
X90029322Y-91313472D01*
X90086431Y-91229890D01*
X90137440Y-90978000D01*
X90137440Y-90378000D01*
X90103081Y-90195400D01*
X90170000Y-90195400D01*
X90471325Y-90135463D01*
X90726776Y-89964776D01*
X91742776Y-88948776D01*
X91913463Y-88693325D01*
X91973400Y-88392000D01*
X91973400Y-85725000D01*
X91913463Y-85423675D01*
X91742776Y-85168224D01*
X90969901Y-84395349D01*
X91079000Y-84286250D01*
X91079000Y-83497500D01*
X90928000Y-83497500D01*
X90928000Y-82872500D01*
X91079000Y-82872500D01*
X91079000Y-82083750D01*
X90920250Y-81925000D01*
X90702691Y-81925000D01*
X90469302Y-82021673D01*
X90315568Y-82175406D01*
X89933556Y-82016781D01*
X89519262Y-82016420D01*
X89136365Y-82174629D01*
X89040226Y-82270600D01*
X85991440Y-82270600D01*
X85991440Y-80924400D01*
X85947162Y-80689083D01*
X85808090Y-80472959D01*
X85595890Y-80327969D01*
X85344000Y-80276960D01*
X83312000Y-80276960D01*
X83076683Y-80321238D01*
X82902722Y-80433179D01*
X82931000Y-80364910D01*
X82931000Y-79914750D01*
X82772250Y-79756000D01*
X81661000Y-79756000D01*
X81661000Y-79776000D01*
X80899000Y-79776000D01*
X80899000Y-79756000D01*
X79787750Y-79756000D01*
X79629000Y-79914750D01*
X79629000Y-80364910D01*
X79725673Y-80598299D01*
X79904302Y-80776927D01*
X80057780Y-80840500D01*
X80035585Y-80855330D01*
X79710729Y-81341511D01*
X79596655Y-81915000D01*
X79710729Y-82488489D01*
X80035585Y-82974670D01*
X80350366Y-83185000D01*
X80035585Y-83395330D01*
X79710729Y-83881511D01*
X79596655Y-84455000D01*
X79710729Y-85028489D01*
X80035585Y-85514670D01*
X80377750Y-85743297D01*
X80164995Y-85861684D01*
X79804568Y-86316326D01*
X79755687Y-86391961D01*
X79843062Y-86614000D01*
X80899000Y-86614000D01*
X80899000Y-86594000D01*
X81661000Y-86594000D01*
X81661000Y-86614000D01*
X82716938Y-86614000D01*
X82804313Y-86391961D01*
X82800073Y-86385400D01*
X82851081Y-86385400D01*
X82891062Y-86487000D01*
X83947000Y-86487000D01*
X83947000Y-86467000D01*
X84709000Y-86467000D01*
X84709000Y-86487000D01*
X84729000Y-86487000D01*
X84729000Y-87249000D01*
X84709000Y-87249000D01*
X84709000Y-87269000D01*
X83947000Y-87269000D01*
X83947000Y-87249000D01*
X82891062Y-87249000D01*
X82803687Y-87471039D01*
X82852568Y-87546674D01*
X83212995Y-88001316D01*
X83425750Y-88119703D01*
X83083585Y-88348330D01*
X82901660Y-88620600D01*
X82621481Y-88620600D01*
X82524415Y-88475330D01*
X82182250Y-88246703D01*
X82395005Y-88128316D01*
X82755432Y-87673674D01*
X82804313Y-87598039D01*
X82716938Y-87376000D01*
X81661000Y-87376000D01*
X81661000Y-87396000D01*
X80899000Y-87396000D01*
X80899000Y-87376000D01*
X79843062Y-87376000D01*
X79755687Y-87598039D01*
X79804568Y-87673674D01*
X80164995Y-88128316D01*
X80377750Y-88246703D01*
X80035585Y-88475330D01*
X79710729Y-88961511D01*
X79596655Y-89535000D01*
X79710729Y-90108489D01*
X80035585Y-90594670D01*
X80350366Y-90805000D01*
X80035585Y-91015330D01*
X79710729Y-91501511D01*
X79596655Y-92075000D01*
X79710729Y-92648489D01*
X80035585Y-93134670D01*
X80350366Y-93345000D01*
X80035585Y-93555330D01*
X79710729Y-94041511D01*
X79596655Y-94615000D01*
X79710729Y-95188489D01*
X80035585Y-95674670D01*
X80275536Y-95835000D01*
X80077466Y-95835000D01*
X79791265Y-95778071D01*
X79605832Y-95654168D01*
X79481929Y-95468735D01*
X79425000Y-95182533D01*
X79425000Y-78385090D01*
X79629000Y-78385090D01*
X79629000Y-78835250D01*
X79787750Y-78994000D01*
X80899000Y-78994000D01*
X80899000Y-78035150D01*
X81661000Y-78035150D01*
X81661000Y-78994000D01*
X82772250Y-78994000D01*
X82931000Y-78835250D01*
X82931000Y-78385090D01*
X82834327Y-78151701D01*
X82655698Y-77973073D01*
X82422309Y-77876400D01*
X81819750Y-77876400D01*
X81661000Y-78035150D01*
X80899000Y-78035150D01*
X80740250Y-77876400D01*
X80137691Y-77876400D01*
X79904302Y-77973073D01*
X79725673Y-78151701D01*
X79629000Y-78385090D01*
X79425000Y-78385090D01*
X79425000Y-75995690D01*
X85615592Y-75995690D01*
X85780362Y-76394463D01*
X86085193Y-76699826D01*
X86483677Y-76865291D01*
X86915150Y-76865668D01*
X87313923Y-76700898D01*
X87619286Y-76396067D01*
X87784751Y-75997583D01*
X87784752Y-75995690D01*
X90014872Y-75995690D01*
X90179642Y-76394463D01*
X90484473Y-76699826D01*
X90882957Y-76865291D01*
X91314430Y-76865668D01*
X91713203Y-76700898D01*
X92018566Y-76396067D01*
X92184031Y-75997583D01*
X92184408Y-75566110D01*
X92019638Y-75167337D01*
X91714807Y-74861974D01*
X91316323Y-74696509D01*
X90884850Y-74696132D01*
X90486077Y-74860902D01*
X90180714Y-75165733D01*
X90015249Y-75564217D01*
X90014872Y-75995690D01*
X87784752Y-75995690D01*
X87785128Y-75566110D01*
X87620358Y-75167337D01*
X87315527Y-74861974D01*
X86917043Y-74696509D01*
X86485570Y-74696132D01*
X86086797Y-74860902D01*
X85781434Y-75165733D01*
X85615969Y-75564217D01*
X85615592Y-75995690D01*
X79425000Y-75995690D01*
X79425000Y-73856795D01*
X79517716Y-73856795D01*
X79766106Y-74457943D01*
X80225637Y-74918278D01*
X80826352Y-75167716D01*
X81476795Y-75168284D01*
X82077943Y-74919894D01*
X82538278Y-74460363D01*
X82787716Y-73859648D01*
X82788284Y-73209205D01*
X82539894Y-72608057D01*
X82080363Y-72147722D01*
X81479648Y-71898284D01*
X80829205Y-71897716D01*
X80228057Y-72146106D01*
X79767722Y-72605637D01*
X79518284Y-73206352D01*
X79517716Y-73856795D01*
X79425000Y-73856795D01*
X79425000Y-72457467D01*
X79481929Y-72171265D01*
X79605832Y-71985832D01*
X79791265Y-71861929D01*
X80077466Y-71805000D01*
X94411177Y-71805000D01*
X94361000Y-72057260D01*
X94361000Y-72057260D01*
G37*
X94361000Y-72057260D02*
X94361000Y-77557000D01*
X94423837Y-77872905D01*
X94602783Y-78140717D01*
X94870595Y-78319663D01*
X95186500Y-78382500D01*
X95189718Y-78381860D01*
X99962793Y-78381860D01*
X99936560Y-78511400D01*
X99936560Y-80238600D01*
X99975824Y-80447272D01*
X98854776Y-79326224D01*
X98599325Y-79155537D01*
X98298000Y-79095600D01*
X97395952Y-79095600D01*
X97301176Y-79000659D01*
X96918556Y-78841781D01*
X96504262Y-78841420D01*
X96121365Y-78999629D01*
X95828159Y-79292324D01*
X95669281Y-79674944D01*
X95668920Y-80089238D01*
X95746485Y-80276960D01*
X94386400Y-80276960D01*
X94151083Y-80321238D01*
X93934959Y-80460310D01*
X93789969Y-80672510D01*
X93738960Y-80924400D01*
X93738960Y-81912560D01*
X92829000Y-81912560D01*
X92593683Y-81956838D01*
X92377559Y-82095910D01*
X92331031Y-82164006D01*
X92188698Y-82021673D01*
X91955309Y-81925000D01*
X91737750Y-81925000D01*
X91579000Y-82083750D01*
X91579000Y-82872500D01*
X91730000Y-82872500D01*
X91730000Y-83497500D01*
X91579000Y-83497500D01*
X91579000Y-84286250D01*
X91737750Y-84445000D01*
X91955309Y-84445000D01*
X92188698Y-84348327D01*
X92329936Y-84207090D01*
X92364910Y-84261441D01*
X92534773Y-84377503D01*
X92430781Y-84627944D01*
X92430420Y-85042238D01*
X92588629Y-85425135D01*
X92646500Y-85483107D01*
X92646500Y-86200000D01*
X92709337Y-86515906D01*
X92742929Y-86566179D01*
X92742560Y-86568000D01*
X92742560Y-87168000D01*
X92786838Y-87403317D01*
X92850678Y-87502528D01*
X92793569Y-87586110D01*
X92742560Y-87838000D01*
X92742560Y-88438000D01*
X92786838Y-88673317D01*
X92850678Y-88772528D01*
X92793569Y-88856110D01*
X92742560Y-89108000D01*
X92742560Y-89636739D01*
X92376762Y-89636420D01*
X91993865Y-89794629D01*
X91700659Y-90087324D01*
X91541781Y-90469944D01*
X91541420Y-90884238D01*
X91699629Y-91267135D01*
X91992324Y-91560341D01*
X92374944Y-91719219D01*
X92742560Y-91719539D01*
X92742560Y-92248000D01*
X92786838Y-92483317D01*
X92850678Y-92582528D01*
X92793569Y-92666110D01*
X92742560Y-92918000D01*
X92742560Y-93518000D01*
X92786838Y-93753317D01*
X92850678Y-93852528D01*
X92793569Y-93936110D01*
X92742560Y-94188000D01*
X92742560Y-94788000D01*
X92786838Y-95023317D01*
X92925910Y-95239441D01*
X93138110Y-95384431D01*
X93390000Y-95435440D01*
X94890000Y-95435440D01*
X95125317Y-95391162D01*
X95305216Y-95275400D01*
X100088801Y-95275400D01*
X100355585Y-95674670D01*
X100595536Y-95835000D01*
X85142396Y-95835000D01*
X85572415Y-95547670D01*
X85897271Y-95061489D01*
X85968723Y-94702275D01*
X86311224Y-95044776D01*
X86566675Y-95215463D01*
X86868000Y-95275400D01*
X87578538Y-95275400D01*
X87738110Y-95384431D01*
X87990000Y-95435440D01*
X89490000Y-95435440D01*
X89725317Y-95391162D01*
X89941441Y-95252090D01*
X90086431Y-95039890D01*
X90137440Y-94788000D01*
X90137440Y-94188000D01*
X90093162Y-93952683D01*
X90029322Y-93853472D01*
X90086431Y-93769890D01*
X90137440Y-93518000D01*
X90137440Y-92918000D01*
X90093162Y-92682683D01*
X90029322Y-92583472D01*
X90086431Y-92499890D01*
X90137440Y-92248000D01*
X90137440Y-91648000D01*
X90093162Y-91412683D01*
X90029322Y-91313472D01*
X90086431Y-91229890D01*
X90137440Y-90978000D01*
X90137440Y-90378000D01*
X90103081Y-90195400D01*
X90170000Y-90195400D01*
X90471325Y-90135463D01*
X90726776Y-89964776D01*
X91742776Y-88948776D01*
X91913463Y-88693325D01*
X91973400Y-88392000D01*
X91973400Y-85725000D01*
X91913463Y-85423675D01*
X91742776Y-85168224D01*
X90969901Y-84395349D01*
X91079000Y-84286250D01*
X91079000Y-83497500D01*
X90928000Y-83497500D01*
X90928000Y-82872500D01*
X91079000Y-82872500D01*
X91079000Y-82083750D01*
X90920250Y-81925000D01*
X90702691Y-81925000D01*
X90469302Y-82021673D01*
X90315568Y-82175406D01*
X89933556Y-82016781D01*
X89519262Y-82016420D01*
X89136365Y-82174629D01*
X89040226Y-82270600D01*
X85991440Y-82270600D01*
X85991440Y-80924400D01*
X85947162Y-80689083D01*
X85808090Y-80472959D01*
X85595890Y-80327969D01*
X85344000Y-80276960D01*
X83312000Y-80276960D01*
X83076683Y-80321238D01*
X82902722Y-80433179D01*
X82931000Y-80364910D01*
X82931000Y-79914750D01*
X82772250Y-79756000D01*
X81661000Y-79756000D01*
X81661000Y-79776000D01*
X80899000Y-79776000D01*
X80899000Y-79756000D01*
X79787750Y-79756000D01*
X79629000Y-79914750D01*
X79629000Y-80364910D01*
X79725673Y-80598299D01*
X79904302Y-80776927D01*
X80057780Y-80840500D01*
X80035585Y-80855330D01*
X79710729Y-81341511D01*
X79596655Y-81915000D01*
X79710729Y-82488489D01*
X80035585Y-82974670D01*
X80350366Y-83185000D01*
X80035585Y-83395330D01*
X79710729Y-83881511D01*
X79596655Y-84455000D01*
X79710729Y-85028489D01*
X80035585Y-85514670D01*
X80377750Y-85743297D01*
X80164995Y-85861684D01*
X79804568Y-86316326D01*
X79755687Y-86391961D01*
X79843062Y-86614000D01*
X80899000Y-86614000D01*
X80899000Y-86594000D01*
X81661000Y-86594000D01*
X81661000Y-86614000D01*
X82716938Y-86614000D01*
X82804313Y-86391961D01*
X82800073Y-86385400D01*
X82851081Y-86385400D01*
X82891062Y-86487000D01*
X83947000Y-86487000D01*
X83947000Y-86467000D01*
X84709000Y-86467000D01*
X84709000Y-86487000D01*
X84729000Y-86487000D01*
X84729000Y-87249000D01*
X84709000Y-87249000D01*
X84709000Y-87269000D01*
X83947000Y-87269000D01*
X83947000Y-87249000D01*
X82891062Y-87249000D01*
X82803687Y-87471039D01*
X82852568Y-87546674D01*
X83212995Y-88001316D01*
X83425750Y-88119703D01*
X83083585Y-88348330D01*
X82901660Y-88620600D01*
X82621481Y-88620600D01*
X82524415Y-88475330D01*
X82182250Y-88246703D01*
X82395005Y-88128316D01*
X82755432Y-87673674D01*
X82804313Y-87598039D01*
X82716938Y-87376000D01*
X81661000Y-87376000D01*
X81661000Y-87396000D01*
X80899000Y-87396000D01*
X80899000Y-87376000D01*
X79843062Y-87376000D01*
X79755687Y-87598039D01*
X79804568Y-87673674D01*
X80164995Y-88128316D01*
X80377750Y-88246703D01*
X80035585Y-88475330D01*
X79710729Y-88961511D01*
X79596655Y-89535000D01*
X79710729Y-90108489D01*
X80035585Y-90594670D01*
X80350366Y-90805000D01*
X80035585Y-91015330D01*
X79710729Y-91501511D01*
X79596655Y-92075000D01*
X79710729Y-92648489D01*
X80035585Y-93134670D01*
X80350366Y-93345000D01*
X80035585Y-93555330D01*
X79710729Y-94041511D01*
X79596655Y-94615000D01*
X79710729Y-95188489D01*
X80035585Y-95674670D01*
X80275536Y-95835000D01*
X80077466Y-95835000D01*
X79791265Y-95778071D01*
X79605832Y-95654168D01*
X79481929Y-95468735D01*
X79425000Y-95182533D01*
X79425000Y-78385090D01*
X79629000Y-78385090D01*
X79629000Y-78835250D01*
X79787750Y-78994000D01*
X80899000Y-78994000D01*
X80899000Y-78035150D01*
X81661000Y-78035150D01*
X81661000Y-78994000D01*
X82772250Y-78994000D01*
X82931000Y-78835250D01*
X82931000Y-78385090D01*
X82834327Y-78151701D01*
X82655698Y-77973073D01*
X82422309Y-77876400D01*
X81819750Y-77876400D01*
X81661000Y-78035150D01*
X80899000Y-78035150D01*
X80740250Y-77876400D01*
X80137691Y-77876400D01*
X79904302Y-77973073D01*
X79725673Y-78151701D01*
X79629000Y-78385090D01*
X79425000Y-78385090D01*
X79425000Y-75995690D01*
X85615592Y-75995690D01*
X85780362Y-76394463D01*
X86085193Y-76699826D01*
X86483677Y-76865291D01*
X86915150Y-76865668D01*
X87313923Y-76700898D01*
X87619286Y-76396067D01*
X87784751Y-75997583D01*
X87784752Y-75995690D01*
X90014872Y-75995690D01*
X90179642Y-76394463D01*
X90484473Y-76699826D01*
X90882957Y-76865291D01*
X91314430Y-76865668D01*
X91713203Y-76700898D01*
X92018566Y-76396067D01*
X92184031Y-75997583D01*
X92184408Y-75566110D01*
X92019638Y-75167337D01*
X91714807Y-74861974D01*
X91316323Y-74696509D01*
X90884850Y-74696132D01*
X90486077Y-74860902D01*
X90180714Y-75165733D01*
X90015249Y-75564217D01*
X90014872Y-75995690D01*
X87784752Y-75995690D01*
X87785128Y-75566110D01*
X87620358Y-75167337D01*
X87315527Y-74861974D01*
X86917043Y-74696509D01*
X86485570Y-74696132D01*
X86086797Y-74860902D01*
X85781434Y-75165733D01*
X85615969Y-75564217D01*
X85615592Y-75995690D01*
X79425000Y-75995690D01*
X79425000Y-73856795D01*
X79517716Y-73856795D01*
X79766106Y-74457943D01*
X80225637Y-74918278D01*
X80826352Y-75167716D01*
X81476795Y-75168284D01*
X82077943Y-74919894D01*
X82538278Y-74460363D01*
X82787716Y-73859648D01*
X82788284Y-73209205D01*
X82539894Y-72608057D01*
X82080363Y-72147722D01*
X81479648Y-71898284D01*
X80829205Y-71897716D01*
X80228057Y-72146106D01*
X79767722Y-72605637D01*
X79518284Y-73206352D01*
X79517716Y-73856795D01*
X79425000Y-73856795D01*
X79425000Y-72457467D01*
X79481929Y-72171265D01*
X79605832Y-71985832D01*
X79791265Y-71861929D01*
X80077466Y-71805000D01*
X94411177Y-71805000D01*
X94361000Y-72057260D01*
G36*
X86926500Y-86888000D02*
X87015000Y-86888000D01*
X87015000Y-87388000D01*
X86926500Y-87388000D01*
X86926500Y-87539000D01*
X86301500Y-87539000D01*
X86301500Y-87388000D01*
X85819636Y-87388000D01*
X85764939Y-87249002D01*
X85979000Y-87249002D01*
X85979000Y-86888000D01*
X86301500Y-86888000D01*
X86301500Y-86737000D01*
X86926500Y-86737000D01*
X86926500Y-86888000D01*
X86926500Y-86888000D01*
G37*
X86926500Y-86888000D02*
X87015000Y-86888000D01*
X87015000Y-87388000D01*
X86926500Y-87388000D01*
X86926500Y-87539000D01*
X86301500Y-87539000D01*
X86301500Y-87388000D01*
X85819636Y-87388000D01*
X85764939Y-87249002D01*
X85979000Y-87249002D01*
X85979000Y-86888000D01*
X86301500Y-86888000D01*
X86301500Y-86737000D01*
X86926500Y-86737000D01*
X86926500Y-86888000D01*
G36*
X89115000Y-86718000D02*
X89141000Y-86718000D01*
X89141000Y-87018000D01*
X89115000Y-87018000D01*
X89115000Y-87168000D01*
X88365000Y-87168000D01*
X88365000Y-87018000D01*
X88339000Y-87018000D01*
X88339000Y-86718000D01*
X88365000Y-86718000D01*
X88365000Y-86568000D01*
X89115000Y-86568000D01*
X89115000Y-86718000D01*
X89115000Y-86718000D01*
G37*
X89115000Y-86718000D02*
X89141000Y-86718000D01*
X89141000Y-87018000D01*
X89115000Y-87018000D01*
X89115000Y-87168000D01*
X88365000Y-87168000D01*
X88365000Y-87018000D01*
X88339000Y-87018000D01*
X88339000Y-86718000D01*
X88365000Y-86718000D01*
X88365000Y-86568000D01*
X89115000Y-86568000D01*
X89115000Y-86718000D01*
M02*
