G04 #@! TF.FileFunction,Soldermask,Top*
%FSLAX46Y46*%
G04 Gerber Fmt 4.6, Leading zero omitted, Abs format (unit mm)*
G04 Created by KiCad (PCBNEW (2015-10-02 BZR 6238, Git 845638f)-product) date 05/10/2015 16:09:44*
%MOMM*%
G01*
G04 APERTURE LIST*
%ADD10C,0.100000*%
%ADD11C,2.000000*%
%ADD12R,1.300000X1.000000*%
%ADD13R,0.500380X2.301240*%
%ADD14R,1.998980X2.499360*%
%ADD15C,0.899160*%
%ADD16R,1.250000X1.000000*%
%ADD17R,1.000000X1.250000*%
%ADD18R,1.727200X1.727200*%
%ADD19O,1.727200X1.727200*%
%ADD20R,2.032000X1.727200*%
%ADD21O,2.032000X1.727200*%
%ADD22R,1.198880X1.198880*%
%ADD23R,1.550000X1.300000*%
%ADD24R,0.800100X1.800860*%
%ADD25R,1.000000X1.300000*%
G04 APERTURE END LIST*
D10*
D11*
X81153000Y-73533000D03*
D12*
X96774000Y-75077500D03*
X96774000Y-72877500D03*
X99250500Y-75077500D03*
X99250500Y-72877500D03*
D13*
X90500200Y-78379320D03*
X89700100Y-78379320D03*
X88900000Y-78379320D03*
X88099900Y-78379320D03*
X87299800Y-78379320D03*
D14*
X93350080Y-78280260D03*
X93350080Y-73930000D03*
X84449920Y-78280260D03*
X84449920Y-73930000D03*
D15*
X91099640Y-75780900D03*
X86700360Y-75780900D03*
D16*
X87122000Y-82788000D03*
X87122000Y-80788000D03*
D17*
X95488000Y-87249000D03*
X93488000Y-87249000D03*
D16*
X98806000Y-92345000D03*
X98806000Y-94345000D03*
D18*
X95250000Y-81788000D03*
D19*
X97790000Y-81788000D03*
X95250000Y-84328000D03*
X97790000Y-84328000D03*
D20*
X101600000Y-79375000D03*
D21*
X101600000Y-81915000D03*
X101600000Y-84455000D03*
X101600000Y-86995000D03*
X101600000Y-89535000D03*
X101600000Y-92075000D03*
X101600000Y-94615000D03*
D20*
X81280000Y-79375000D03*
D21*
X81280000Y-81915000D03*
X81280000Y-84455000D03*
X81280000Y-86995000D03*
X81280000Y-89535000D03*
X81280000Y-92075000D03*
X81280000Y-94615000D03*
D20*
X84328000Y-81788000D03*
D21*
X84328000Y-84328000D03*
X84328000Y-86868000D03*
X84328000Y-89408000D03*
X84328000Y-91948000D03*
X84328000Y-94488000D03*
D22*
X99250500Y-76484480D03*
X99250500Y-78582520D03*
X96774000Y-76484480D03*
X96774000Y-78582520D03*
D23*
X95161000Y-90587000D03*
X95161000Y-95087000D03*
X87211000Y-95087000D03*
X87211000Y-90587000D03*
D24*
X96967000Y-90147140D03*
X98867000Y-90147140D03*
X97917000Y-87144860D03*
D25*
X87165000Y-88011000D03*
X89365000Y-88011000D03*
D12*
X91440000Y-86825000D03*
X91440000Y-84625000D03*
M02*
