G04 #@! TF.FileFunction,Legend,Top*
%FSLAX46Y46*%
G04 Gerber Fmt 4.6, Leading zero omitted, Abs format (unit mm)*
G04 Created by KiCad (PCBNEW (2015-10-02 BZR 6238, Git 845638f)-product) date 05/10/2015 16:09:44*
%MOMM*%
G01*
G04 APERTURE LIST*
%ADD10C,0.100000*%
%ADD11C,0.254000*%
%ADD12C,0.150000*%
%ADD13C,0.177800*%
G04 APERTURE END LIST*
D10*
D11*
X93245214Y-83351309D02*
X93245214Y-82383690D01*
X92882357Y-82383690D02*
X92882357Y-83351309D01*
X91028762Y-80140024D02*
X90424000Y-80140024D01*
X90363524Y-80744786D01*
X90424000Y-80684310D01*
X90544952Y-80623833D01*
X90847333Y-80623833D01*
X90968286Y-80684310D01*
X91028762Y-80744786D01*
X91089238Y-80865738D01*
X91089238Y-81168119D01*
X91028762Y-81289071D01*
X90968286Y-81349548D01*
X90847333Y-81410024D01*
X90544952Y-81410024D01*
X90424000Y-81349548D01*
X90363524Y-81289071D01*
X91512572Y-80563357D02*
X91814953Y-81410024D01*
X92117333Y-80563357D01*
X92601143Y-80744786D02*
X93568762Y-80744786D01*
X93568762Y-81107643D02*
X92601143Y-81107643D01*
X89335429Y-82172024D02*
X90121619Y-82172024D01*
X89698286Y-82655833D01*
X89879714Y-82655833D01*
X90000667Y-82716310D01*
X90061143Y-82776786D01*
X90121619Y-82897738D01*
X90121619Y-83200119D01*
X90061143Y-83321071D01*
X90000667Y-83381548D01*
X89879714Y-83442024D01*
X89516857Y-83442024D01*
X89395905Y-83381548D01*
X89335429Y-83321071D01*
X90544953Y-82595357D02*
X90847334Y-83442024D01*
X91149714Y-82595357D01*
X91512572Y-82172024D02*
X92298762Y-82172024D01*
X91875429Y-82655833D01*
X92056857Y-82655833D01*
X92177810Y-82716310D01*
X92238286Y-82776786D01*
X92298762Y-82897738D01*
X92298762Y-83200119D01*
X92238286Y-83321071D01*
X92177810Y-83381548D01*
X92056857Y-83442024D01*
X91694000Y-83442024D01*
X91573048Y-83381548D01*
X91512572Y-83321071D01*
D12*
X97649000Y-73377500D02*
X97649000Y-74577500D01*
X100125500Y-73377500D02*
X100125500Y-74577500D01*
X98375500Y-74577500D02*
X98375500Y-73377500D01*
X92750640Y-71330820D02*
X85049360Y-71330820D01*
X85049360Y-71230000D02*
X85049360Y-79529940D01*
X85049360Y-79529940D02*
X92750640Y-79529940D01*
X92750640Y-79529940D02*
X92750640Y-71230000D01*
X86272000Y-81288000D02*
X86272000Y-82288000D01*
X87972000Y-82288000D02*
X87972000Y-81288000D01*
X93988000Y-88099000D02*
X94988000Y-88099000D01*
X94988000Y-86399000D02*
X93988000Y-86399000D01*
X99656000Y-93845000D02*
X99656000Y-92845000D01*
X97956000Y-92845000D02*
X97956000Y-93845000D01*
X93700000Y-81788000D02*
X93700000Y-80238000D01*
X95250000Y-80238000D02*
X93700000Y-80238000D01*
X93980000Y-83058000D02*
X96520000Y-83058000D01*
X96520000Y-83058000D02*
X96520000Y-80518000D01*
X96520000Y-80518000D02*
X99060000Y-80518000D01*
X99060000Y-80518000D02*
X99060000Y-85598000D01*
X99060000Y-85598000D02*
X93980000Y-85598000D01*
X93980000Y-85598000D02*
X93980000Y-83058000D01*
X85598000Y-83058000D02*
X85598000Y-95758000D01*
X85598000Y-95758000D02*
X83058000Y-95758000D01*
X83058000Y-95758000D02*
X83058000Y-83058000D01*
X85878000Y-80238000D02*
X85878000Y-81788000D01*
X85598000Y-83058000D02*
X83058000Y-83058000D01*
X82778000Y-81788000D02*
X82778000Y-80238000D01*
X82778000Y-80238000D02*
X85878000Y-80238000D01*
X99550220Y-78031340D02*
X99875340Y-78031340D01*
X99875340Y-78031340D02*
X99875340Y-78531720D01*
X99550220Y-78531720D02*
X99875340Y-78531720D01*
X99550220Y-78031340D02*
X99550220Y-78531720D01*
X98927920Y-78031340D02*
X99077780Y-78031340D01*
X99077780Y-78031340D02*
X99077780Y-78282800D01*
X98927920Y-78282800D02*
X99077780Y-78282800D01*
X98927920Y-78031340D02*
X98927920Y-78282800D01*
X99423220Y-78031340D02*
X99573080Y-78031340D01*
X99573080Y-78031340D02*
X99573080Y-78282800D01*
X99423220Y-78282800D02*
X99573080Y-78282800D01*
X99423220Y-78031340D02*
X99423220Y-78282800D01*
X99052380Y-78031340D02*
X99448620Y-78031340D01*
X99448620Y-78031340D02*
X99448620Y-78206600D01*
X99052380Y-78206600D02*
X99448620Y-78206600D01*
X99052380Y-78031340D02*
X99052380Y-78206600D01*
X99550220Y-76535280D02*
X99875340Y-76535280D01*
X99875340Y-76535280D02*
X99875340Y-77035660D01*
X99550220Y-77035660D02*
X99875340Y-77035660D01*
X99550220Y-76535280D02*
X99550220Y-77035660D01*
X98625660Y-76535280D02*
X98950780Y-76535280D01*
X98950780Y-76535280D02*
X98950780Y-77035660D01*
X98625660Y-77035660D02*
X98950780Y-77035660D01*
X98625660Y-76535280D02*
X98625660Y-77035660D01*
X99423220Y-76784200D02*
X99573080Y-76784200D01*
X99573080Y-76784200D02*
X99573080Y-77035660D01*
X99423220Y-77035660D02*
X99573080Y-77035660D01*
X99423220Y-76784200D02*
X99423220Y-77035660D01*
X98927920Y-76784200D02*
X99077780Y-76784200D01*
X99077780Y-76784200D02*
X99077780Y-77035660D01*
X98927920Y-77035660D02*
X99077780Y-77035660D01*
X98927920Y-76784200D02*
X98927920Y-77035660D01*
X99052380Y-76860400D02*
X99448620Y-76860400D01*
X99448620Y-76860400D02*
X99448620Y-77035660D01*
X99052380Y-77035660D02*
X99448620Y-77035660D01*
X99052380Y-76860400D02*
X99052380Y-77035660D01*
X99151440Y-77533500D02*
X99349560Y-77533500D01*
X99349560Y-77533500D02*
X99349560Y-77731620D01*
X99151440Y-77731620D02*
X99349560Y-77731620D01*
X99151440Y-77533500D02*
X99151440Y-77731620D01*
X98651060Y-78031340D02*
X98950780Y-78031340D01*
X98950780Y-78031340D02*
X98950780Y-78331060D01*
X98651060Y-78331060D02*
X98950780Y-78331060D01*
X98651060Y-78031340D02*
X98651060Y-78331060D01*
X98625660Y-78458060D02*
X98851720Y-78458060D01*
X98851720Y-78458060D02*
X98851720Y-78531720D01*
X98625660Y-78531720D02*
X98851720Y-78531720D01*
X98625660Y-78458060D02*
X98625660Y-78531720D01*
X99824540Y-78056740D02*
X99824540Y-77010260D01*
X98676460Y-77035660D02*
X98676460Y-78458060D01*
X98872762Y-78381860D02*
G75*
G03X98872762Y-78381860I-71842J0D01*
G01*
X98902520Y-78531720D02*
G75*
G02X99598480Y-78531720I347980J0D01*
G01*
X99598480Y-76535280D02*
G75*
G02X98902520Y-76535280I-347980J0D01*
G01*
X97073720Y-78031340D02*
X97398840Y-78031340D01*
X97398840Y-78031340D02*
X97398840Y-78531720D01*
X97073720Y-78531720D02*
X97398840Y-78531720D01*
X97073720Y-78031340D02*
X97073720Y-78531720D01*
X96451420Y-78031340D02*
X96601280Y-78031340D01*
X96601280Y-78031340D02*
X96601280Y-78282800D01*
X96451420Y-78282800D02*
X96601280Y-78282800D01*
X96451420Y-78031340D02*
X96451420Y-78282800D01*
X96946720Y-78031340D02*
X97096580Y-78031340D01*
X97096580Y-78031340D02*
X97096580Y-78282800D01*
X96946720Y-78282800D02*
X97096580Y-78282800D01*
X96946720Y-78031340D02*
X96946720Y-78282800D01*
X96575880Y-78031340D02*
X96972120Y-78031340D01*
X96972120Y-78031340D02*
X96972120Y-78206600D01*
X96575880Y-78206600D02*
X96972120Y-78206600D01*
X96575880Y-78031340D02*
X96575880Y-78206600D01*
X97073720Y-76535280D02*
X97398840Y-76535280D01*
X97398840Y-76535280D02*
X97398840Y-77035660D01*
X97073720Y-77035660D02*
X97398840Y-77035660D01*
X97073720Y-76535280D02*
X97073720Y-77035660D01*
X96149160Y-76535280D02*
X96474280Y-76535280D01*
X96474280Y-76535280D02*
X96474280Y-77035660D01*
X96149160Y-77035660D02*
X96474280Y-77035660D01*
X96149160Y-76535280D02*
X96149160Y-77035660D01*
X96946720Y-76784200D02*
X97096580Y-76784200D01*
X97096580Y-76784200D02*
X97096580Y-77035660D01*
X96946720Y-77035660D02*
X97096580Y-77035660D01*
X96946720Y-76784200D02*
X96946720Y-77035660D01*
X96451420Y-76784200D02*
X96601280Y-76784200D01*
X96601280Y-76784200D02*
X96601280Y-77035660D01*
X96451420Y-77035660D02*
X96601280Y-77035660D01*
X96451420Y-76784200D02*
X96451420Y-77035660D01*
X96575880Y-76860400D02*
X96972120Y-76860400D01*
X96972120Y-76860400D02*
X96972120Y-77035660D01*
X96575880Y-77035660D02*
X96972120Y-77035660D01*
X96575880Y-76860400D02*
X96575880Y-77035660D01*
X96674940Y-77533500D02*
X96873060Y-77533500D01*
X96873060Y-77533500D02*
X96873060Y-77731620D01*
X96674940Y-77731620D02*
X96873060Y-77731620D01*
X96674940Y-77533500D02*
X96674940Y-77731620D01*
X96174560Y-78031340D02*
X96474280Y-78031340D01*
X96474280Y-78031340D02*
X96474280Y-78331060D01*
X96174560Y-78331060D02*
X96474280Y-78331060D01*
X96174560Y-78031340D02*
X96174560Y-78331060D01*
X96149160Y-78458060D02*
X96375220Y-78458060D01*
X96375220Y-78458060D02*
X96375220Y-78531720D01*
X96149160Y-78531720D02*
X96375220Y-78531720D01*
X96149160Y-78458060D02*
X96149160Y-78531720D01*
X97348040Y-78056740D02*
X97348040Y-77010260D01*
X96199960Y-77035660D02*
X96199960Y-78458060D01*
X96396262Y-78381860D02*
G75*
G03X96396262Y-78381860I-71842J0D01*
G01*
X96426020Y-78531720D02*
G75*
G02X97121980Y-78531720I347980J0D01*
G01*
X97121980Y-76535280D02*
G75*
G02X96426020Y-76535280I-347980J0D01*
G01*
X92936714Y-92837000D02*
G75*
G03X92936714Y-92837000I-1750714J0D01*
G01*
X87961000Y-96062000D02*
X87961000Y-95937000D01*
X87961000Y-89612000D02*
X87961000Y-89737000D01*
X94411000Y-89612000D02*
X94411000Y-89737000D01*
X94411000Y-95937000D02*
X94411000Y-96062000D01*
X87961000Y-94237000D02*
X87961000Y-91437000D01*
X94411000Y-96062000D02*
X87961000Y-96062000D01*
X94411000Y-94237000D02*
X94411000Y-91437000D01*
X94411000Y-89612000D02*
X87961000Y-89612000D01*
X96417180Y-88696800D02*
X96417180Y-87995760D01*
X96417180Y-87995760D02*
X96666100Y-87995760D01*
X99216160Y-87995760D02*
X99416820Y-87995760D01*
X99416820Y-87995760D02*
X99416820Y-88696800D01*
X88865000Y-88886000D02*
X87665000Y-88886000D01*
X87665000Y-87136000D02*
X88865000Y-87136000D01*
X92315000Y-85125000D02*
X92315000Y-86325000D01*
X90565000Y-86325000D02*
X90565000Y-85125000D01*
D13*
X95178034Y-74408695D02*
X94907101Y-74021648D01*
X94713577Y-74408695D02*
X94713577Y-73595895D01*
X95023215Y-73595895D01*
X95100624Y-73634600D01*
X95139329Y-73673305D01*
X95178034Y-73750714D01*
X95178034Y-73866829D01*
X95139329Y-73944238D01*
X95100624Y-73982943D01*
X95023215Y-74021648D01*
X94713577Y-74021648D01*
X95874720Y-73866829D02*
X95874720Y-74408695D01*
X95681196Y-73557190D02*
X95487672Y-74137762D01*
X95990834Y-74137762D01*
X100956534Y-74408695D02*
X100685601Y-74021648D01*
X100492077Y-74408695D02*
X100492077Y-73595895D01*
X100801715Y-73595895D01*
X100879124Y-73634600D01*
X100917829Y-73673305D01*
X100956534Y-73750714D01*
X100956534Y-73866829D01*
X100917829Y-73944238D01*
X100879124Y-73982943D01*
X100801715Y-74021648D01*
X100492077Y-74021648D01*
X101227467Y-73595895D02*
X101730629Y-73595895D01*
X101459696Y-73905533D01*
X101575810Y-73905533D01*
X101653220Y-73944238D01*
X101691924Y-73982943D01*
X101730629Y-74060352D01*
X101730629Y-74253876D01*
X101691924Y-74331286D01*
X101653220Y-74369990D01*
X101575810Y-74408695D01*
X101343582Y-74408695D01*
X101266172Y-74369990D01*
X101227467Y-74331286D01*
X83930067Y-75754895D02*
X83930067Y-76335467D01*
X83891363Y-76451581D01*
X83813953Y-76528990D01*
X83697839Y-76567695D01*
X83620429Y-76567695D01*
X84742867Y-76567695D02*
X84278410Y-76567695D01*
X84510639Y-76567695D02*
X84510639Y-75754895D01*
X84433229Y-75871010D01*
X84355820Y-75948419D01*
X84278410Y-75987124D01*
X86986534Y-84618286D02*
X86947829Y-84656990D01*
X86831715Y-84695695D01*
X86754305Y-84695695D01*
X86638191Y-84656990D01*
X86560782Y-84579581D01*
X86522077Y-84502171D01*
X86483372Y-84347352D01*
X86483372Y-84231238D01*
X86522077Y-84076419D01*
X86560782Y-83999010D01*
X86638191Y-83921600D01*
X86754305Y-83882895D01*
X86831715Y-83882895D01*
X86947829Y-83921600D01*
X86986534Y-83960305D01*
X87760629Y-84695695D02*
X87296172Y-84695695D01*
X87528401Y-84695695D02*
X87528401Y-83882895D01*
X87450991Y-83999010D01*
X87373582Y-84076419D01*
X87296172Y-84115124D01*
X91812534Y-88364786D02*
X91773829Y-88403490D01*
X91657715Y-88442195D01*
X91580305Y-88442195D01*
X91464191Y-88403490D01*
X91386782Y-88326081D01*
X91348077Y-88248671D01*
X91309372Y-88093852D01*
X91309372Y-87977738D01*
X91348077Y-87822919D01*
X91386782Y-87745510D01*
X91464191Y-87668100D01*
X91580305Y-87629395D01*
X91657715Y-87629395D01*
X91773829Y-87668100D01*
X91812534Y-87706805D01*
X92122172Y-87706805D02*
X92160877Y-87668100D01*
X92238286Y-87629395D01*
X92431810Y-87629395D01*
X92509220Y-87668100D01*
X92547924Y-87706805D01*
X92586629Y-87784214D01*
X92586629Y-87861624D01*
X92547924Y-87977738D01*
X92083467Y-88442195D01*
X92586629Y-88442195D01*
X96892534Y-94651286D02*
X96853829Y-94689990D01*
X96737715Y-94728695D01*
X96660305Y-94728695D01*
X96544191Y-94689990D01*
X96466782Y-94612581D01*
X96428077Y-94535171D01*
X96389372Y-94380352D01*
X96389372Y-94264238D01*
X96428077Y-94109419D01*
X96466782Y-94032010D01*
X96544191Y-93954600D01*
X96660305Y-93915895D01*
X96737715Y-93915895D01*
X96853829Y-93954600D01*
X96892534Y-93993305D01*
X97163467Y-93915895D02*
X97666629Y-93915895D01*
X97395696Y-94225533D01*
X97511810Y-94225533D01*
X97589220Y-94264238D01*
X97627924Y-94302943D01*
X97666629Y-94380352D01*
X97666629Y-94573876D01*
X97627924Y-94651286D01*
X97589220Y-94689990D01*
X97511810Y-94728695D01*
X97279582Y-94728695D01*
X97202172Y-94689990D01*
X97163467Y-94651286D01*
X99678067Y-82739895D02*
X99678067Y-83320467D01*
X99639363Y-83436581D01*
X99561953Y-83513990D01*
X99445839Y-83552695D01*
X99368429Y-83552695D01*
X100026410Y-82817305D02*
X100065115Y-82778600D01*
X100142524Y-82739895D01*
X100336048Y-82739895D01*
X100413458Y-82778600D01*
X100452162Y-82817305D01*
X100490867Y-82894714D01*
X100490867Y-82972124D01*
X100452162Y-83088238D01*
X99987705Y-83552695D01*
X100490867Y-83552695D01*
X86343067Y-93026895D02*
X86343067Y-93607467D01*
X86304363Y-93723581D01*
X86226953Y-93800990D01*
X86110839Y-93839695D01*
X86033429Y-93839695D01*
X86652705Y-93026895D02*
X87155867Y-93026895D01*
X86884934Y-93336533D01*
X87001048Y-93336533D01*
X87078458Y-93375238D01*
X87117162Y-93413943D01*
X87155867Y-93491352D01*
X87155867Y-93684876D01*
X87117162Y-93762286D01*
X87078458Y-93800990D01*
X87001048Y-93839695D01*
X86768820Y-93839695D01*
X86691410Y-93800990D01*
X86652705Y-93762286D01*
X100238077Y-76567695D02*
X100238077Y-75754895D01*
X100431601Y-75754895D01*
X100547715Y-75793600D01*
X100625124Y-75871010D01*
X100663829Y-75948419D01*
X100702534Y-76103238D01*
X100702534Y-76219352D01*
X100663829Y-76374171D01*
X100625124Y-76451581D01*
X100547715Y-76528990D01*
X100431601Y-76567695D01*
X100238077Y-76567695D01*
X101476629Y-76567695D02*
X101012172Y-76567695D01*
X101244401Y-76567695D02*
X101244401Y-75754895D01*
X101166991Y-75871010D01*
X101089582Y-75948419D01*
X101012172Y-75987124D01*
X94523077Y-76567695D02*
X94523077Y-75754895D01*
X94716601Y-75754895D01*
X94832715Y-75793600D01*
X94910124Y-75871010D01*
X94948829Y-75948419D01*
X94987534Y-76103238D01*
X94987534Y-76219352D01*
X94948829Y-76374171D01*
X94910124Y-76451581D01*
X94832715Y-76528990D01*
X94716601Y-76567695D01*
X94523077Y-76567695D01*
X95297172Y-75832305D02*
X95335877Y-75793600D01*
X95413286Y-75754895D01*
X95606810Y-75754895D01*
X95684220Y-75793600D01*
X95722924Y-75832305D01*
X95761629Y-75909714D01*
X95761629Y-75987124D01*
X95722924Y-76103238D01*
X95258467Y-76567695D01*
X95761629Y-76567695D01*
X94928267Y-92657990D02*
X95044381Y-92696695D01*
X95237905Y-92696695D01*
X95315315Y-92657990D01*
X95354019Y-92619286D01*
X95392724Y-92541876D01*
X95392724Y-92464467D01*
X95354019Y-92387057D01*
X95315315Y-92348352D01*
X95237905Y-92309648D01*
X95083086Y-92270943D01*
X95005677Y-92232238D01*
X94966972Y-92193533D01*
X94928267Y-92116124D01*
X94928267Y-92038714D01*
X94966972Y-91961305D01*
X95005677Y-91922600D01*
X95083086Y-91883895D01*
X95276610Y-91883895D01*
X95392724Y-91922600D01*
X95663657Y-91883895D02*
X95857181Y-92696695D01*
X96012000Y-92116124D01*
X96166819Y-92696695D01*
X96360343Y-91883895D01*
X97095733Y-92696695D02*
X96631276Y-92696695D01*
X96863505Y-92696695D02*
X96863505Y-91883895D01*
X96786095Y-92000010D01*
X96708686Y-92077419D01*
X96631276Y-92116124D01*
X98694724Y-86676895D02*
X98694724Y-87334876D01*
X98733429Y-87412286D01*
X98772133Y-87450990D01*
X98849543Y-87489695D01*
X99004362Y-87489695D01*
X99081771Y-87450990D01*
X99120476Y-87412286D01*
X99159181Y-87334876D01*
X99159181Y-86676895D01*
X99507524Y-86754305D02*
X99546229Y-86715600D01*
X99623638Y-86676895D01*
X99817162Y-86676895D01*
X99894572Y-86715600D01*
X99933276Y-86754305D01*
X99971981Y-86831714D01*
X99971981Y-86909124D01*
X99933276Y-87025238D01*
X99468819Y-87489695D01*
X99971981Y-87489695D01*
X87113534Y-86727695D02*
X86842601Y-86340648D01*
X86649077Y-86727695D02*
X86649077Y-85914895D01*
X86958715Y-85914895D01*
X87036124Y-85953600D01*
X87074829Y-85992305D01*
X87113534Y-86069714D01*
X87113534Y-86185829D01*
X87074829Y-86263238D01*
X87036124Y-86301943D01*
X86958715Y-86340648D01*
X86649077Y-86340648D01*
X87423172Y-85992305D02*
X87461877Y-85953600D01*
X87539286Y-85914895D01*
X87732810Y-85914895D01*
X87810220Y-85953600D01*
X87848924Y-85992305D01*
X87887629Y-86069714D01*
X87887629Y-86147124D01*
X87848924Y-86263238D01*
X87384467Y-86727695D01*
X87887629Y-86727695D01*
X89399534Y-86092695D02*
X89128601Y-85705648D01*
X88935077Y-86092695D02*
X88935077Y-85279895D01*
X89244715Y-85279895D01*
X89322124Y-85318600D01*
X89360829Y-85357305D01*
X89399534Y-85434714D01*
X89399534Y-85550829D01*
X89360829Y-85628238D01*
X89322124Y-85666943D01*
X89244715Y-85705648D01*
X88935077Y-85705648D01*
X90173629Y-86092695D02*
X89709172Y-86092695D01*
X89941401Y-86092695D02*
X89941401Y-85279895D01*
X89863991Y-85396010D01*
X89786582Y-85473419D01*
X89709172Y-85512124D01*
M02*
