M48
INCH,TZ
T1C0.016
T2C0.035
T3C0.040
T4C0.079
%
G90
G05
T1
X035000Y-033025
X035325Y-032700
X035900Y-036550
X036350Y-035050
X036450Y-035700
X036800Y-033400
X038075Y-031450
T2
X034134Y-029835
X035866Y-029835
T3
X032000Y-031250
X032000Y-032250
X032000Y-033250
X032000Y-034250
X032000Y-035250
X032000Y-036250
X032000Y-037250
X033200Y-032200
X033200Y-033200
X033200Y-034200
X033200Y-035200
X033200Y-036200
X033200Y-037200
X037500Y-032200
X037500Y-033200
X038500Y-032200
X038500Y-033200
X040000Y-031250
X040000Y-032250
X040000Y-033250
X040000Y-034250
X040000Y-035250
X040000Y-036250
X040000Y-037250
T4
X031950Y-028950
T0
M30
